<mxfile host="app.diagrams.net" modified="2020-03-22T03:35:31.765Z" agent="Mozilla/5.0 (Windows NT 10.0; Win64; x64; rv:74.0) Gecko/20100101 Firefox/74.0" etag="IuqrBiN5HqITc-Ay2qEG" version="12.8.8" type="github">
  <diagram id="ODxXchdAwgTXNLU9TBr1" name="Page-1">
    <mxGraphModel dx="1156" dy="780" grid="1" gridSize="10" guides="1" tooltips="1" connect="1" arrows="1" fold="1" page="1" pageScale="1" pageWidth="850" pageHeight="1100" math="0" shadow="0">
      <root>
        <mxCell id="0" />
        <mxCell id="1" parent="0" />
        <mxCell id="Krg5OAJmCBE884iFsZVr-1" value="&amp;nbsp;&amp;nbsp;&amp;nbsp;&amp;nbsp;&amp;nbsp;&amp;nbsp; Member STRUCT" style="rounded=0;whiteSpace=wrap;html=1;fontColor=#FAFAFA;align=left;verticalAlign=top;" vertex="1" parent="1">
          <mxGeometry x="20" y="25" width="170" height="230" as="geometry" />
        </mxCell>
        <mxCell id="Krg5OAJmCBE884iFsZVr-2" value="Password" style="rounded=0;whiteSpace=wrap;html=1;fontColor=#FAFAFA;" vertex="1" parent="1">
          <mxGeometry x="30" y="123" width="150" height="30" as="geometry" />
        </mxCell>
        <mxCell id="Krg5OAJmCBE884iFsZVr-3" value="IsActivated" style="rounded=0;whiteSpace=wrap;html=1;fontColor=#FAFAFA;" vertex="1" parent="1">
          <mxGeometry x="30" y="183" width="150" height="30" as="geometry" />
        </mxCell>
        <mxCell id="Krg5OAJmCBE884iFsZVr-4" value="MemberRole" style="rounded=0;whiteSpace=wrap;html=1;fontColor=#FAFAFA;" vertex="1" parent="1">
          <mxGeometry x="30" y="153" width="150" height="30" as="geometry" />
        </mxCell>
        <mxCell id="Krg5OAJmCBE884iFsZVr-5" value="JoinDate" style="rounded=0;whiteSpace=wrap;html=1;fontColor=#FAFAFA;" vertex="1" parent="1">
          <mxGeometry x="30" y="213" width="150" height="30" as="geometry" />
        </mxCell>
        <mxCell id="Krg5OAJmCBE884iFsZVr-6" value="Email Address" style="rounded=0;whiteSpace=wrap;html=1;fontColor=#FAFAFA;" vertex="1" parent="1">
          <mxGeometry x="30" y="63" width="150" height="30" as="geometry" />
        </mxCell>
        <mxCell id="Krg5OAJmCBE884iFsZVr-7" value="Username" style="rounded=0;whiteSpace=wrap;html=1;fontColor=#FAFAFA;" vertex="1" parent="1">
          <mxGeometry x="30" y="93" width="150" height="30" as="geometry" />
        </mxCell>
        <mxCell id="Krg5OAJmCBE884iFsZVr-9" value="&amp;nbsp;&amp;nbsp;&amp;nbsp;&amp;nbsp;&amp;nbsp;&amp;nbsp;&amp;nbsp;&amp;nbsp;&amp;nbsp;&amp;nbsp;&amp;nbsp;&amp;nbsp;&amp;nbsp; Security" style="rounded=0;whiteSpace=wrap;html=1;fontColor=#FAFAFA;align=left;verticalAlign=top;" vertex="1" parent="1">
          <mxGeometry x="790" y="85" width="150" height="230" as="geometry" />
        </mxCell>
        <mxCell id="Krg5OAJmCBE884iFsZVr-11" value="" style="rounded=0;whiteSpace=wrap;html=1;fontColor=#FAFAFA;" vertex="1" parent="1">
          <mxGeometry x="790" y="230" width="150" height="30" as="geometry" />
        </mxCell>
        <mxCell id="Krg5OAJmCBE884iFsZVr-12" value="" style="rounded=0;whiteSpace=wrap;html=1;fontColor=#FAFAFA;" vertex="1" parent="1">
          <mxGeometry x="790" y="200" width="150" height="30" as="geometry" />
        </mxCell>
        <mxCell id="Krg5OAJmCBE884iFsZVr-13" value="" style="rounded=0;whiteSpace=wrap;html=1;fontColor=#FAFAFA;" vertex="1" parent="1">
          <mxGeometry x="790" y="260" width="150" height="30" as="geometry" />
        </mxCell>
        <mxCell id="Krg5OAJmCBE884iFsZVr-14" value="GetUserIDSecurityCode" style="rounded=0;whiteSpace=wrap;html=1;fontColor=#FAFAFA;" vertex="1" parent="1">
          <mxGeometry x="790" y="110" width="150" height="30" as="geometry" />
        </mxCell>
        <mxCell id="Krg5OAJmCBE884iFsZVr-15" value="VerifyPasswordReq" style="rounded=0;whiteSpace=wrap;html=1;fontColor=#FAFAFA;" vertex="1" parent="1">
          <mxGeometry x="790" y="140" width="150" height="30" as="geometry" />
        </mxCell>
        <mxCell id="Krg5OAJmCBE884iFsZVr-19" value="&amp;nbsp;&amp;nbsp;&amp;nbsp;&amp;nbsp;&amp;nbsp;&amp;nbsp; Member Database/Bolt Buckets METHODS" style="rounded=0;whiteSpace=wrap;html=1;fontColor=#FAFAFA;align=left;verticalAlign=top;" vertex="1" parent="1">
          <mxGeometry x="220" y="135" width="430" height="615" as="geometry" />
        </mxCell>
        <mxCell id="Krg5OAJmCBE884iFsZVr-8" value="&lt;div&gt;ADD MEMBER&lt;br&gt;&lt;/div&gt;&lt;div&gt;&lt;br&gt;&lt;/div&gt;&lt;div&gt;func AddMember (member Member) (error){}&lt;/div&gt;&lt;div&gt;&lt;br&gt;&lt;/div&gt;&lt;div&gt;--adds a member into the member database bolt bucket&lt;br&gt;&lt;/div&gt;" style="rounded=0;whiteSpace=wrap;html=1;fontColor=#FAFAFA;align=left;spacingLeft=8;" vertex="1" parent="1">
          <mxGeometry x="230" y="160" width="410" height="80" as="geometry" />
        </mxCell>
        <mxCell id="Krg5OAJmCBE884iFsZVr-21" value="&lt;div&gt;REMOVE MEMBER&lt;br&gt;&lt;/div&gt;&lt;div&gt;&lt;br&gt;&lt;/div&gt;&lt;div&gt;func RemoveMember (member Member) (error){}&lt;/div&gt;&lt;div&gt;&lt;br&gt;&lt;/div&gt;&lt;div&gt;--Removes a member into the member database bolt bucket&lt;br&gt;&lt;/div&gt;" style="rounded=0;whiteSpace=wrap;html=1;fontColor=#FAFAFA;align=left;spacingLeft=8;" vertex="1" parent="1">
          <mxGeometry x="230" y="244" width="410" height="80" as="geometry" />
        </mxCell>
        <mxCell id="Krg5OAJmCBE884iFsZVr-22" value="&lt;div&gt;POLL ALL MEMBERS&lt;br&gt;&lt;/div&gt;&lt;div&gt;&lt;br&gt;&lt;/div&gt;&lt;div&gt;func PollMembers ( ) (error) { }&lt;/div&gt;&lt;div&gt;&lt;br&gt;&lt;/div&gt;&lt;div&gt;--Retrieves all members from the members database&lt;br&gt;&lt;/div&gt;" style="rounded=0;whiteSpace=wrap;html=1;fontColor=#FAFAFA;align=left;spacingLeft=8;" vertex="1" parent="1">
          <mxGeometry x="230" y="330" width="410" height="80" as="geometry" />
        </mxCell>
        <mxCell id="Krg5OAJmCBE884iFsZVr-23" value="&lt;div&gt;POLL MEMBERS BY ID&lt;br&gt;&lt;/div&gt;&lt;div&gt;&lt;br&gt;&lt;/div&gt;&lt;div&gt;func PollMembersByID ( id string ) ( Member, error ) { }&lt;/div&gt;&lt;div&gt;&lt;br&gt;&lt;/div&gt;&lt;div&gt;--Retrieves member from the members database by their Member ID generated using their email address with crypto.GetUserSecurityCode&lt;br&gt;&lt;/div&gt;" style="rounded=0;whiteSpace=wrap;html=1;fontColor=#FAFAFA;align=left;spacingLeft=8;" vertex="1" parent="1">
          <mxGeometry x="230" y="416" width="410" height="100" as="geometry" />
        </mxCell>
        <mxCell id="Krg5OAJmCBE884iFsZVr-24" value="&lt;div&gt;POLL MEMBERS BY EMAIL&lt;br&gt;&lt;/div&gt;&lt;div&gt;&lt;br&gt;&lt;/div&gt;&lt;div&gt;func PollMembersByEmail ( email string ) ( Member, error ) { }&lt;/div&gt;&lt;div&gt;&lt;br&gt;&lt;/div&gt;&lt;div&gt;--Retrieves member from the members database by their email address&lt;br&gt;&lt;/div&gt;" style="rounded=0;whiteSpace=wrap;html=1;fontColor=#FAFAFA;align=left;spacingLeft=8;" vertex="1" parent="1">
          <mxGeometry x="230" y="522" width="410" height="88" as="geometry" />
        </mxCell>
        <mxCell id="Krg5OAJmCBE884iFsZVr-25" value="&lt;div&gt;CREATE MEMBER DATABASE DURING INITIALIZATION&lt;br&gt;&lt;/div&gt;&lt;div&gt;&lt;br&gt;&lt;/div&gt;&lt;div&gt;func CreateMemberDB (&amp;nbsp; ) ( error ) { }&lt;/div&gt;&lt;div&gt;&lt;br&gt;&lt;/div&gt;&lt;div&gt;--Check if a bucket exists.&amp;nbsp; If not, then creates a bucket to use for members.&amp;nbsp; With this system there is usually a bucket found after the first save.&lt;br&gt;&lt;/div&gt;" style="rounded=0;whiteSpace=wrap;html=1;fontColor=#FAFAFA;align=left;spacingLeft=8;" vertex="1" parent="1">
          <mxGeometry x="230" y="620" width="410" height="110" as="geometry" />
        </mxCell>
      </root>
    </mxGraphModel>
  </diagram>
</mxfile>
